<svg width="657" height="743" viewBox="0 0 657 743" fill="none" xmlns="http://www.w3.org/2000/svg">
<path d="M559.533 736.87C553.897 736.87 549.328 732.326 549.328 726.722C549.328 721.118 553.897 716.574 559.533 716.574C565.169 716.574 569.738 721.118 569.738 726.722C569.738 732.309 565.169 736.87 559.533 736.87Z" stroke="#df352f" stroke-width="3" stroke-miterlimit="10" stroke-linecap="round" stroke-linejoin="round"/>
<path d="M552.493 734.057L545.276 741.216" stroke="#df352f" stroke-width="3" stroke-miterlimit="10" stroke-linecap="round" stroke-linejoin="round"/>
<path d="M368.05 0L357.314 10.6765" stroke="#df352f" stroke-width="3" stroke-miterlimit="10" stroke-linecap="round" stroke-linejoin="round"/>
<path d="M368.05 10.6765L357.314 -4.69299e-07" stroke="#df352f" stroke-width="3" stroke-miterlimit="10" stroke-linecap="round" stroke-linejoin="round"/>
<path d="M352.679 642.285L341.943 652.961" stroke="#df352f" stroke-width="3" stroke-miterlimit="10" stroke-linecap="round" stroke-linejoin="round"/>
<path d="M352.679 652.961L341.943 642.285" stroke="#df352f" stroke-width="3" stroke-miterlimit="10" stroke-linecap="round" stroke-linejoin="round"/>
<path d="M17.4016 207.04L2.21888 207.04" stroke="#df352f" stroke-width="3" stroke-miterlimit="10" stroke-linecap="round" stroke-linejoin="round"/>
<path d="M9.81189 214.608L9.81189 199.492" stroke="#df352f" stroke-width="3" stroke-miterlimit="10" stroke-linecap="round" stroke-linejoin="round"/>
<path d="M461.526 152.449C456.442 152.449 452.299 148.347 452.299 143.273C452.299 138.217 456.424 134.097 461.526 134.097C466.611 134.097 470.753 138.199 470.753 143.273C470.736 148.347 466.611 152.449 461.526 152.449Z" stroke="#df352f" stroke-width="3" stroke-miterlimit="10" stroke-linecap="round" stroke-linejoin="round"/>
<path d="M645.773 383.484C640.688 383.484 636.546 379.383 636.546 374.309C636.546 369.252 640.671 365.133 645.773 365.133C650.858 365.133 655 369.235 655 374.309C654.982 379.383 650.858 383.484 645.773 383.484Z" stroke="#df352f" stroke-width="3" stroke-miterlimit="10" stroke-linecap="round" stroke-linejoin="round"/>
<path d="M65.6329 525.11C60.5482 525.11 56.4059 521.008 56.4059 515.934C56.4059 510.878 60.5305 506.759 65.6329 506.759C70.7175 506.759 74.8599 510.86 74.8599 515.934C74.8421 521.008 70.7175 525.11 65.6329 525.11Z" stroke="#df352f" stroke-width="3" stroke-miterlimit="10" stroke-linecap="round" stroke-linejoin="round"/>
<path d="M175.852 23.7428C175.852 25.5781 177.348 27.066 179.194 27.066C181.039 27.066 182.536 25.5781 182.536 23.7428C182.536 21.9075 181.039 20.4197 179.194 20.4197C177.348 20.4197 175.852 21.9075 175.852 23.7428Z" fill="#c4e46e"/>
<path d="M175.852 46.9563C175.852 48.7916 177.348 50.2795 179.194 50.2795C181.039 50.2795 182.536 48.7916 182.536 46.9563C182.536 45.121 181.039 43.6332 179.194 43.6332C177.348 43.6332 175.852 45.121 175.852 46.9563Z" fill="#c4e46e"/>
<path d="M175.852 70.1491C175.852 71.9844 177.348 73.4722 179.194 73.4722C181.039 73.4722 182.536 71.9844 182.536 70.1491C182.536 68.3137 181.039 66.8259 179.194 66.8259C177.348 66.8259 175.852 68.3137 175.852 70.1491Z" fill="#c4e46e"/>
<path d="M175.852 93.3593C175.852 95.1946 177.348 96.6824 179.194 96.6824C181.039 96.6824 182.536 95.1946 182.536 93.3593C182.536 91.524 181.039 90.0361 179.194 90.0361C177.348 90.0361 175.852 91.5239 175.852 93.3593Z" fill="#c4e46e"/>
<path d="M175.852 116.554C175.852 118.389 177.348 119.877 179.194 119.877C181.039 119.877 182.536 118.389 182.536 116.554C182.536 114.719 181.039 113.231 179.194 113.231C177.348 113.231 175.852 114.719 175.852 116.554Z" fill="#c4e46e"/>
<path d="M175.852 139.765C175.852 141.6 177.348 143.088 179.194 143.088C181.039 143.088 182.536 141.6 182.536 139.765C182.536 137.929 181.039 136.441 179.194 136.441C177.348 136.441 175.852 137.929 175.852 139.765Z" fill="#c4e46e"/>
<path d="M152.527 23.7429C152.527 25.5783 154.023 27.0661 155.868 27.0661C157.714 27.0661 159.21 25.5783 159.21 23.7429C159.21 21.9076 157.714 20.4198 155.868 20.4198C154.023 20.4198 152.527 21.9076 152.527 23.7429Z" fill="#c4e46e"/>
<path d="M152.527 46.9563C152.527 48.7916 154.023 50.2795 155.868 50.2795C157.714 50.2795 159.21 48.7916 159.21 46.9563C159.21 45.121 157.714 43.6332 155.868 43.6332C154.023 43.6332 152.527 45.121 152.527 46.9563Z" fill="#c4e46e"/>
<path d="M152.527 70.1491C152.527 71.9844 154.023 73.4722 155.868 73.4722C157.714 73.4722 159.21 71.9844 159.21 70.1491C159.21 68.3137 157.714 66.8259 155.868 66.8259C154.023 66.8259 152.527 68.3137 152.527 70.1491Z" fill="#c4e46e"/>
<path d="M152.527 93.3593C152.527 95.1946 154.023 96.6824 155.868 96.6824C157.714 96.6824 159.21 95.1946 159.21 93.3593C159.21 91.524 157.714 90.0361 155.868 90.0361C154.023 90.0361 152.527 91.5239 152.527 93.3593Z" fill="#c4e46e"/>
<path d="M152.527 116.554C152.527 118.389 154.023 119.877 155.868 119.877C157.714 119.877 159.21 118.389 159.21 116.554C159.21 114.719 157.714 113.231 155.868 113.231C154.023 113.231 152.527 114.719 152.527 116.554Z" fill="#c4e46e"/>
<path d="M152.527 139.765C152.527 141.6 154.023 143.088 155.868 143.088C157.714 143.088 159.21 141.6 159.21 139.765C159.21 137.929 157.714 136.441 155.868 136.441C154.023 136.441 152.527 137.929 152.527 139.765Z" fill="#c4e46e"/>
<path d="M129.183 23.7429C129.183 25.5783 130.68 27.0661 132.525 27.0661C134.371 27.0661 135.867 25.5783 135.867 23.7429C135.867 21.9076 134.371 20.4198 132.525 20.4198C130.68 20.4198 129.183 21.9076 129.183 23.7429Z" fill="#c4e46e"/>
<path d="M129.183 46.9563C129.183 48.7916 130.68 50.2795 132.525 50.2795C134.371 50.2795 135.867 48.7916 135.867 46.9563C135.867 45.121 134.371 43.6332 132.525 43.6332C130.68 43.6332 129.183 45.121 129.183 46.9563Z" fill="#c4e46e"/>
<path d="M129.183 70.1491C129.183 71.9844 130.68 73.4722 132.525 73.4722C134.371 73.4722 135.867 71.9844 135.867 70.1491C135.867 68.3137 134.371 66.8259 132.525 66.8259C130.68 66.8259 129.183 68.3137 129.183 70.1491Z" fill="#c4e46e"/>
<path d="M129.183 93.3593C129.183 95.1946 130.68 96.6824 132.525 96.6824C134.371 96.6824 135.867 95.1946 135.867 93.3593C135.867 91.524 134.371 90.0361 132.525 90.0361C130.68 90.0361 129.183 91.5239 129.183 93.3593Z" fill="#c4e46e"/>
<path d="M129.183 116.554C129.183 118.389 130.68 119.877 132.525 119.877C134.371 119.877 135.867 118.389 135.867 116.554C135.867 114.719 134.371 113.231 132.525 113.231C130.68 113.231 129.183 114.719 129.183 116.554Z" fill="#c4e46e"/>
<path d="M129.183 139.765C129.183 141.6 130.68 143.088 132.525 143.088C134.371 143.088 135.867 141.6 135.867 139.765C135.867 137.929 134.371 136.441 132.525 136.441C130.68 136.441 129.183 137.929 129.183 139.765Z" fill="#c4e46e"/>
<path d="M105.858 23.7429C105.858 25.5783 107.355 27.0661 109.2 27.0661C111.046 27.0661 112.542 25.5783 112.542 23.7429C112.542 21.9076 111.046 20.4198 109.2 20.4198C107.355 20.4198 105.858 21.9076 105.858 23.7429Z" fill="#c4e46e"/>
<path d="M105.858 46.9563C105.858 48.7916 107.355 50.2795 109.2 50.2795C111.046 50.2795 112.542 48.7916 112.542 46.9563C112.542 45.121 111.046 43.6332 109.2 43.6332C107.355 43.6332 105.858 45.121 105.858 46.9563Z" fill="#c4e46e"/>
<path d="M105.858 70.1491C105.858 71.9844 107.355 73.4722 109.2 73.4722C111.046 73.4722 112.542 71.9844 112.542 70.1491C112.542 68.3137 111.046 66.8259 109.2 66.8259C107.355 66.8259 105.858 68.3137 105.858 70.1491Z" fill="#c4e46e"/>
<path d="M105.858 93.3593C105.858 95.1946 107.355 96.6824 109.2 96.6824C111.046 96.6824 112.542 95.1946 112.542 93.3593C112.542 91.524 111.046 90.0361 109.2 90.0361C107.355 90.0361 105.858 91.5239 105.858 93.3593Z" fill="#c4e46e"/>
<path d="M105.858 116.554C105.858 118.389 107.355 119.877 109.2 119.877C111.046 119.877 112.542 118.389 112.542 116.554C112.542 114.719 111.046 113.231 109.2 113.231C107.355 113.231 105.858 114.719 105.858 116.554Z" fill="#c4e46e"/>
<path d="M105.858 139.765C105.858 141.6 107.355 143.088 109.2 143.088C111.046 143.088 112.542 141.6 112.542 139.765C112.542 137.929 111.046 136.441 109.2 136.441C107.355 136.441 105.858 137.929 105.858 139.765Z" fill="#c4e46e"/>
<path d="M556.425 531.59C556.425 533.426 557.922 534.913 559.767 534.913C561.613 534.913 563.109 533.426 563.109 531.59C563.109 529.755 561.613 528.267 559.767 528.267C557.922 528.267 556.425 529.755 556.425 531.59Z" fill="#c4e46e"/>
<path d="M556.427 554.783C556.427 556.619 557.923 558.106 559.768 558.106C561.614 558.106 563.11 556.619 563.11 554.783C563.11 552.948 561.614 551.46 559.768 551.46C557.923 551.46 556.427 552.948 556.427 554.783Z" fill="#c4e46e"/>
<path d="M556.427 577.993C556.427 579.828 557.923 581.316 559.768 581.316C561.614 581.316 563.11 579.828 563.11 577.993C563.11 576.158 561.614 574.67 559.768 574.67C557.923 574.67 556.427 576.158 556.427 577.993Z" fill="#c4e46e"/>
<path d="M533.084 531.588C533.084 533.423 534.58 534.911 536.426 534.911C538.271 534.911 539.767 533.423 539.767 531.588C539.767 529.752 538.271 528.265 536.426 528.265C534.58 528.265 533.084 529.752 533.084 531.588Z" fill="#c4e46e"/>
<path d="M533.084 554.783C533.084 556.619 534.58 558.106 536.426 558.106C538.271 558.106 539.767 556.619 539.767 554.783C539.767 552.948 538.271 551.46 536.426 551.46C534.58 551.46 533.084 552.948 533.084 554.783Z" fill="#c4e46e"/>
<path d="M533.084 577.991C533.084 579.826 534.58 581.314 536.426 581.314C538.271 581.314 539.767 579.826 539.767 577.991C539.767 576.156 538.271 574.668 536.426 574.668C534.58 574.668 533.084 576.156 533.084 577.991Z" fill="#c4e46e"/>
<path d="M638.793 122.894C638.793 124.729 640.289 126.217 642.135 126.217C643.98 126.217 645.477 124.729 645.477 122.894C645.477 121.059 643.98 119.571 642.135 119.571C640.289 119.571 638.793 121.059 638.793 122.894Z" fill="#c4e46e"/>
<path d="M638.795 146.086C638.795 147.921 640.291 149.409 642.136 149.409C643.982 149.409 645.478 147.921 645.478 146.086C645.478 144.25 643.982 142.762 642.136 142.762C640.291 142.762 638.795 144.25 638.795 146.086Z" fill="#c4e46e"/>
<path d="M638.795 169.298C638.795 171.134 640.291 172.621 642.136 172.621C643.982 172.621 645.478 171.134 645.478 169.298C645.478 167.463 643.982 165.975 642.136 165.975C640.291 165.975 638.795 167.463 638.795 169.298Z" fill="#c4e46e"/>
<path d="M615.451 122.893C615.451 124.729 616.947 126.216 618.793 126.216C620.639 126.216 622.135 124.729 622.135 122.893C622.135 121.058 620.639 119.57 618.793 119.57C616.947 119.57 615.451 121.058 615.451 122.893Z" fill="#c4e46e"/>
<path d="M615.451 146.088C615.451 147.923 616.947 149.411 618.793 149.411C620.639 149.411 622.135 147.923 622.135 146.088C622.135 144.252 620.639 142.765 618.793 142.765C616.947 142.765 615.451 144.252 615.451 146.088Z" fill="#c4e46e"/>
<path d="M615.451 169.298C615.451 171.133 616.947 172.621 618.793 172.621C620.639 172.621 622.135 171.133 622.135 169.298C622.135 167.463 620.639 165.975 618.793 165.975C616.947 165.975 615.451 167.463 615.451 169.298Z" fill="#c4e46e"/>
<path d="M184.218 738.634C184.218 740.469 185.715 741.957 187.56 741.957C189.406 741.957 190.902 740.469 190.902 738.634C190.902 736.799 189.406 735.311 187.56 735.311C185.715 735.311 184.218 736.799 184.218 738.634Z" fill="#c4e46e"/>
<path d="M160.875 738.634C160.875 740.469 162.372 741.957 164.217 741.957C166.063 741.957 167.559 740.469 167.559 738.634C167.559 736.799 166.063 735.311 164.217 735.311C162.372 735.311 160.875 736.799 160.875 738.634Z" fill="#c4e46e"/>
<path d="M137.55 738.634C137.55 740.469 139.046 741.957 140.892 741.957C142.737 741.957 144.234 740.469 144.234 738.634C144.234 736.799 142.737 735.311 140.892 735.311C139.046 735.311 137.55 736.799 137.55 738.634Z" fill="#c4e46e"/>
<path d="M114.207 738.634C114.207 740.469 115.703 741.957 117.549 741.957C119.394 741.957 120.891 740.469 120.891 738.634C120.891 736.799 119.394 735.311 117.549 735.311C115.703 735.311 114.207 736.799 114.207 738.634Z" fill="#c4e46e"/>
<path d="M90.882 738.634C90.882 740.469 92.3782 741.957 94.2238 741.957C96.0694 741.957 97.5656 740.469 97.5656 738.634C97.5656 736.799 96.0694 735.311 94.2238 735.311C92.3782 735.311 90.882 736.799 90.882 738.634Z" fill="#c4e46e"/>
<path d="M67.5389 738.634C67.5389 740.469 69.035 741.957 70.8806 741.957C72.7262 741.957 74.2224 740.469 74.2224 738.634C74.2224 736.799 72.7262 735.311 70.8806 735.311C69.035 735.311 67.5389 736.799 67.5389 738.634Z" fill="#c4e46e"/>
<path d="M44.2133 738.634C44.2133 740.469 45.7095 741.957 47.5551 741.957C49.4007 741.957 50.8969 740.469 50.8969 738.634C50.8969 736.799 49.4007 735.311 47.5551 735.311C45.7095 735.311 44.2133 736.799 44.2133 738.634Z" fill="#c4e46e"/>
<path d="M184.218 715.423C184.218 717.258 185.715 718.746 187.56 718.746C189.406 718.746 190.902 717.258 190.902 715.423C190.902 713.587 189.406 712.099 187.56 712.099C185.715 712.099 184.218 713.587 184.218 715.423Z" fill="#c4e46e"/>
<path d="M160.875 715.423C160.875 717.258 162.372 718.746 164.217 718.746C166.063 718.746 167.559 717.258 167.559 715.423C167.559 713.587 166.063 712.099 164.217 712.099C162.372 712.099 160.875 713.587 160.875 715.423Z" fill="#c4e46e"/>
<path d="M137.55 715.423C137.55 717.258 139.046 718.746 140.892 718.746C142.737 718.746 144.234 717.258 144.234 715.423C144.234 713.587 142.737 712.099 140.892 712.099C139.046 712.099 137.55 713.587 137.55 715.423Z" fill="#c4e46e"/>
<path d="M114.207 715.423C114.207 717.258 115.703 718.746 117.549 718.746C119.394 718.746 120.891 717.258 120.891 715.423C120.891 713.587 119.394 712.099 117.549 712.099C115.703 712.099 114.207 713.587 114.207 715.423Z" fill="#c4e46e"/>
<path d="M90.882 715.423C90.882 717.258 92.3782 718.746 94.2238 718.746C96.0694 718.746 97.5656 717.258 97.5656 715.423C97.5656 713.587 96.0694 712.099 94.2238 712.099C92.3782 712.099 90.882 713.587 90.882 715.423Z" fill="#c4e46e"/>
<path d="M67.5387 715.422C67.5387 717.258 69.0349 718.746 70.8805 718.746C72.7261 718.746 74.2223 717.258 74.2223 715.422C74.2223 713.587 72.7261 712.099 70.8805 712.099C69.0349 712.099 67.5387 713.587 67.5387 715.422Z" fill="#c4e46e"/>
<path d="M44.2133 715.423C44.2133 717.258 45.7095 718.746 47.5551 718.746C49.4007 718.746 50.8969 717.258 50.8969 715.423C50.8969 713.587 49.4007 712.099 47.5551 712.099C45.7095 712.099 44.2133 713.587 44.2133 715.423Z" fill="#c4e46e"/>
<path d="M184.218 692.228C184.218 694.063 185.715 695.551 187.56 695.551C189.406 695.551 190.902 694.063 190.902 692.228C190.902 690.393 189.406 688.905 187.56 688.905C185.715 688.905 184.218 690.393 184.218 692.228Z" fill="#c4e46e"/>
<path d="M160.875 692.228C160.875 694.063 162.372 695.551 164.217 695.551C166.063 695.551 167.559 694.063 167.559 692.228C167.559 690.393 166.063 688.905 164.217 688.905C162.372 688.905 160.875 690.393 160.875 692.228Z" fill="#c4e46e"/>
<path d="M137.55 692.228C137.55 694.063 139.046 695.551 140.892 695.551C142.737 695.551 144.234 694.063 144.234 692.228C144.234 690.393 142.737 688.905 140.892 688.905C139.046 688.905 137.55 690.393 137.55 692.228Z" fill="#c4e46e"/>
<path d="M114.207 692.228C114.207 694.063 115.703 695.551 117.549 695.551C119.394 695.551 120.891 694.063 120.891 692.228C120.891 690.393 119.394 688.905 117.549 688.905C115.703 688.905 114.207 690.393 114.207 692.228Z" fill="#c4e46e"/>
<path d="M90.882 692.228C90.882 694.063 92.3782 695.551 94.2238 695.551C96.0694 695.551 97.5656 694.063 97.5656 692.228C97.5656 690.393 96.0694 688.905 94.2238 688.905C92.3782 688.905 90.882 690.393 90.882 692.228Z" fill="#c4e46e"/>
<path d="M67.5387 692.228C67.5387 694.063 69.0349 695.551 70.8805 695.551C72.7261 695.551 74.2223 694.063 74.2223 692.228C74.2223 690.393 72.7261 688.905 70.8805 688.905C69.0349 688.905 67.5387 690.393 67.5387 692.228Z" fill="#c4e46e"/>
<path d="M44.2133 692.228C44.2133 694.063 45.7095 695.551 47.5551 695.551C49.4007 695.551 50.8969 694.063 50.8969 692.228C50.8969 690.393 49.4007 688.905 47.5551 688.905C45.7095 688.905 44.2133 690.393 44.2133 692.228Z" fill="#c4e46e"/>
<path d="M184.216 669.018C184.216 670.853 185.713 672.341 187.558 672.341C189.404 672.341 190.9 670.853 190.9 669.018C190.9 667.183 189.404 665.695 187.558 665.695C185.713 665.695 184.216 667.183 184.216 669.018Z" fill="#c4e46e"/>
<path d="M160.875 669.017C160.875 670.853 162.372 672.34 164.217 672.34C166.063 672.34 167.559 670.853 167.559 669.017C167.559 667.182 166.063 665.694 164.217 665.694C162.372 665.694 160.875 667.182 160.875 669.017Z" fill="#c4e46e"/>
<path d="M137.55 669.017C137.55 670.853 139.046 672.34 140.892 672.34C142.737 672.34 144.234 670.853 144.234 669.017C144.234 667.182 142.737 665.694 140.892 665.694C139.046 665.694 137.55 667.182 137.55 669.017Z" fill="#c4e46e"/>
<path d="M114.207 669.017C114.207 670.853 115.703 672.34 117.549 672.34C119.394 672.34 120.891 670.853 120.891 669.017C120.891 667.182 119.394 665.694 117.549 665.694C115.703 665.694 114.207 667.182 114.207 669.017Z" fill="#c4e46e"/>
<path d="M90.882 669.017C90.882 670.853 92.3782 672.34 94.2238 672.34C96.0694 672.34 97.5656 670.853 97.5656 669.017C97.5656 667.182 96.0694 665.694 94.2238 665.694C92.3782 665.694 90.882 667.182 90.882 669.017Z" fill="#c4e46e"/>
<path d="M67.5387 669.017C67.5387 670.853 69.0349 672.34 70.8805 672.34C72.7261 672.34 74.2223 670.853 74.2223 669.017C74.2223 667.182 72.7261 665.694 70.8805 665.694C69.0349 665.694 67.5387 667.182 67.5387 669.017Z" fill="#c4e46e"/>
<path d="M44.2133 669.017C44.2133 670.853 45.7095 672.34 47.5551 672.34C49.4007 672.34 50.8969 670.853 50.8969 669.017C50.8969 667.182 49.4007 665.694 47.5551 665.694C45.7095 665.694 44.2133 667.182 44.2133 669.017Z" fill="#c4e46e"/>
</svg>
