<svg width="376" height="613" viewBox="0 0 376 613" fill="none" xmlns="http://www.w3.org/2000/svg">
<path d="M167 261C142.2 246.2 95.6667 262.167 75.5 272C121.5 236 158 243 170.5 251C190.9 261.4 176.667 262 167 261Z" fill="black" stroke="black"/>
<path d="M235.906 262.442C260.706 247.642 307.24 263.608 327.406 273.442C281.406 237.442 244.906 244.442 232.406 252.442C212.006 262.842 226.24 263.442 235.906 262.442Z" fill="black" stroke="black"/>
<path d="M37.9999 158.5C22.7999 164.1 38.9999 256.167 48.9999 301.5C55.6666 262.5 73.2 184.5 90 184.5C161.6 222.1 274.167 208.5 321.5 197C343.5 227.8 353 279.5 355 301.5C371.8 256.3 368.333 192.667 364.5 166.5C407 75.5 251 22.1667 164.5 8C174.5 13.6 173.333 27.6667 171.5 34C162.7 19.6 113.5 16.3333 90 16.5C100.333 23.1667 119 39.6 111 52C89 57.6 44.8333 20.3333 25.5 1C6.70007 8.6 33.3333 64.8333 48.9999 92L25.5 84L48.9999 118.5L0.5 107.5C19.3333 122.167 53.1999 152.9 37.9999 158.5Z" fill="black" stroke="black"/>
<path fill-rule="evenodd" clip-rule="evenodd" d="M51 321C34.6667 355 8.79999 440.9 36 512.5L44 500C50.5 513.5 69.8 543.2 95 554V543C113.333 561.667 160.5 601.5 202.5 611.5C222.833 603 270.9 577.4 300.5 543V554L350 512.5L359.5 522C372.833 480 389.6 382.4 350 328C350.833 349.5 347.3 396.1 326.5 410.5V384.5C320 395.333 301.5 417.3 279.5 418.5C268.167 407.5 241.9 388 227.5 398C228.862 394.46 231.869 388.229 234.669 386.72C222.224 388.316 200.5 393.128 200.5 401.5C193.833 396.5 177.5 386.5 165.5 386.5C169.667 389.167 177.3 395.2 174.5 398C166.167 394 142.8 392.5 116 418.5C103.833 413.333 78.3 398.7 73.5 381.5C71.8333 390.667 69 409.8 71 413C64.3333 406.833 51 379.8 51 321ZM200.5 522C152.9 529.6 139.667 484.167 139 460.5C145 463.3 159.167 455.667 165.5 451.5C166.7 454.3 161.333 462.667 158.5 466.5C177.7 462.5 194.5 441.833 200.5 432C206.1 452.4 230.5 462.5 242 465C234.8 461.8 233 453.333 233 449.5C237.4 456.7 251.167 459.833 257.5 460.5C259.5 488 260 512.5 200.5 522Z" fill="black"/>
<path d="M234.669 386.72C231.869 388.229 228.862 394.46 227.5 398C241.9 388 268.167 407.5 279.5 418.5C301.5 417.3 320 395.333 326.5 384.5V410.5C347.3 396.1 350.833 349.5 350 328C389.6 382.4 372.833 480 359.5 522L350 512.5L300.5 554V543C270.9 577.4 222.833 603 202.5 611.5C160.5 601.5 113.333 561.667 95 543V554C69.8 543.2 50.5 513.5 44 500L36 512.5C8.79999 440.9 34.6667 355 51 321C51 379.8 64.3333 406.833 71 413C69 409.8 71.8333 390.667 73.5 381.5C78.3 398.7 103.833 413.333 116 418.5C142.8 392.5 166.167 394 174.5 398C177.3 395.2 169.667 389.167 165.5 386.5C177.5 386.5 193.833 396.5 200.5 401.5C200.5 393.128 222.224 388.316 234.669 386.72ZM234.669 386.72C235.305 386.638 235.917 386.565 236.5 386.5C235.914 386.28 235.297 386.381 234.669 386.72ZM139 460.5C139.667 484.167 152.9 529.6 200.5 522C260 512.5 259.5 488 257.5 460.5C251.167 459.833 237.4 456.7 233 449.5C233 453.333 234.8 461.8 242 465C230.5 462.5 206.1 452.4 200.5 432C194.5 441.833 177.7 462.5 158.5 466.5C161.333 462.667 166.7 454.3 165.5 451.5C159.167 455.667 145 463.3 139 460.5Z" stroke="black"/>
<path d="M225.5 336.5C236.7 393.3 196.5 382.833 175 370.5C169.8 361.3 180.167 364 186 366.5C218.8 380.9 221 357.833 218 344.5C214.4 332.1 221.5 334 225.5 336.5Z" fill="black" stroke="black"/>
<path d="M97.5 289.5C109.167 281.833 137.3 271.1 156.5 289.5C149.667 277.167 128.3 259.9 97.5 289.5Z" fill="black" stroke="black"/>
<path d="M295 290.344C283.333 282.677 255.2 271.944 236 290.344C242.833 278.01 264.2 260.744 295 290.344Z" fill="black" stroke="black"/>
<ellipse cx="128.5" cy="298" rx="16.5" ry="15" fill="black"/>
<ellipse cx="261.5" cy="298" rx="16.5" ry="15" fill="black"/>
</svg>
