<svg width="50" height="80" viewBox="0 0 67 109" fill="none" xmlns="http://www.w3.org/2000/svg">
<path d="M29.9224 46.6153C25.6144 44.0444 17.5312 46.818 14.0281 48.5261C22.0186 42.2726 28.359 43.4886 30.5303 44.8782C34.074 46.6848 31.6015 46.789 29.9224 46.6153Z" fill="black" stroke="black"/>
<path d="M41.892 46.8658C46.1999 44.2949 54.2831 47.0685 57.7863 48.7766C49.7957 42.5231 43.4553 43.7391 41.284 45.1287C37.7403 46.9353 40.2128 47.0395 41.892 46.8658Z" fill="black" stroke="black"/>
<path d="M7.51404 28.8102C4.87367 29.783 7.68775 45.7757 9.42483 53.6504C10.5829 46.8758 13.6286 33.3266 16.5469 33.3266C28.9844 39.858 48.5381 37.4956 56.7603 35.498C60.5819 40.8482 62.2321 49.8289 62.5795 53.6504C65.4978 45.7988 64.8956 34.7452 64.2297 30.1999C71.6123 14.3924 44.5139 5.12799 29.4881 2.66713C31.2252 3.63989 31.0225 6.08339 30.7041 7.18354C29.1755 4.68214 20.629 4.1147 16.5469 4.14365C18.3419 5.3017 21.5844 8.1563 20.1947 10.3103C16.3732 11.283 8.70106 4.80953 5.3427 1.45117C2.077 2.77135 6.70341 12.5395 9.42483 17.2586L5.3427 15.8689L9.42483 21.8619L1 19.9511C4.2715 22.4988 10.1544 27.8374 7.51404 28.8102Z" fill="black" stroke="black"/>
<path fill-rule="evenodd" clip-rule="evenodd" d="M9.77221 57.0377C6.93498 62.9438 2.44173 77.8653 7.16659 90.3028L8.55625 88.1315C9.68536 90.4765 13.0379 95.6357 17.4154 97.5117V95.6009C20.6 98.8435 28.7932 105.763 36.089 107.5C39.621 106.023 47.9706 101.576 53.1124 95.6009V97.5117L61.7109 90.3028L63.3612 91.953C65.6773 84.6573 68.5898 67.7034 61.7109 58.2537C61.8557 61.9884 61.2419 70.0832 57.6288 72.5846V68.0682C56.4997 69.95 53.2861 73.7658 49.4645 73.9743C47.4958 72.0635 42.9331 68.6762 40.4317 70.4132C40.6682 69.7983 41.1906 68.7159 41.6771 68.4537C39.5151 68.731 35.7416 69.5669 35.7416 71.0212C34.5835 70.1527 31.7463 68.4156 29.6618 68.4156C30.3856 68.8788 31.7115 69.9269 31.2252 70.4132C29.7776 69.7184 25.7186 69.4578 21.0632 73.9743C18.9498 73.0768 14.5144 70.5348 13.6806 67.5471C13.3911 69.1394 12.899 72.463 13.2464 73.0189C12.0883 71.9477 9.77221 67.2518 9.77221 57.0377ZM35.7416 91.953C27.4731 93.2732 25.1743 85.3811 25.0585 81.27C26.1008 81.7564 28.5616 80.4304 29.6618 79.7066C29.8702 80.193 28.938 81.6464 28.4458 82.3122C31.781 81.6174 34.6993 78.0274 35.7416 76.3193C36.7143 79.863 40.9528 81.6174 42.9505 82.0517C41.6998 81.4958 41.3871 80.0251 41.3871 79.3592C42.1514 80.6099 44.5428 81.1542 45.6429 81.27C45.9903 86.047 46.0772 90.3028 35.7416 91.953Z" fill="black"/>
<path d="M41.6771 68.4537C41.1906 68.7159 40.6682 69.7983 40.4317 70.4132C42.9331 68.6762 47.4958 72.0635 49.4645 73.9743C53.2861 73.7658 56.4997 69.95 57.6288 68.0682V72.5846C61.2419 70.0832 61.8557 61.9884 61.7109 58.2537C68.5898 67.7034 65.6773 84.6573 63.3612 91.953L61.7109 90.3028L53.1124 97.5117V95.6009C47.9706 101.576 39.621 106.023 36.089 107.5C28.7932 105.763 20.6 98.8435 17.4154 95.6009V97.5117C13.0379 95.6357 9.68536 90.4765 8.55625 88.1315L7.16659 90.3028C2.44173 77.8653 6.93498 62.9438 9.77221 57.0377C9.77221 67.2518 12.0883 71.9477 13.2464 73.0189C12.899 72.463 13.3911 69.1394 13.6806 67.5471C14.5144 70.5348 18.9498 73.0768 21.0632 73.9743C25.7186 69.4578 29.7776 69.7184 31.2252 70.4132C31.7115 69.9269 30.3856 68.8788 29.6618 68.4156C31.7463 68.4156 34.5835 70.1527 35.7416 71.0212C35.7416 69.5669 39.5151 68.731 41.6771 68.4537ZM41.6771 68.4537C41.7875 68.4396 41.8937 68.4269 41.9951 68.4156C41.8933 68.3774 41.7861 68.395 41.6771 68.4537ZM25.0585 81.27C25.1743 85.3811 27.4731 93.2732 35.7416 91.953C46.0772 90.3028 45.9903 86.047 45.6429 81.27C44.5428 81.1542 42.1514 80.6099 41.3871 79.3592C41.3871 80.0251 41.6998 81.4958 42.9505 82.0517C40.9528 81.6174 36.7143 79.863 35.7416 76.3193C34.6993 78.0274 31.781 81.6174 28.4458 82.3122C28.938 81.6464 29.8702 80.193 29.6618 79.7066C28.5616 80.4304 26.1008 81.7564 25.0585 81.27Z" stroke="black"/>
<path d="M40.0844 59.7302C42.0299 69.5968 35.0469 67.7787 31.3121 65.6363C30.4089 64.0382 32.2096 64.5072 33.2229 64.9414C38.9205 67.4428 39.3027 63.436 38.7816 61.1199C38.1562 58.9659 39.3896 59.2959 40.0844 59.7302Z" fill="black" stroke="black"/>
<path d="M17.8497 51.566C19.8763 50.2342 24.7633 48.3697 28.0985 51.566C26.9115 49.4236 23.1999 46.4242 17.8497 51.566Z" fill="black" stroke="black"/>
<path d="M52.157 51.7123C50.1304 50.3806 45.2434 48.5161 41.9082 51.7123C43.0952 49.5699 46.8068 46.5706 52.157 51.7123Z" fill="black" stroke="black"/>
<ellipse cx="23.2347" cy="53.0424" rx="2.86618" ry="2.60562" fill="black"/>
<ellipse cx="46.3379" cy="53.0424" rx="2.86618" ry="2.60562" fill="black"/>
</svg>
